<?xml version="1.0" encoding="UTF-8"?>
<svg id="Layer_1" data-name="Layer 1" xmlns="http://www.w3.org/2000/svg" viewBox="0 0 1500 1000">
  <defs>
    <style>
      .cls-1 {
        fill: #d5ff7c;
      }
    </style>
  </defs>
  <path class="cls-1" d="M478.76,598.35v-16.95c-20.31,22.74-45.6,34.1-75.87,34.1-28.65,0-53.07-10.49-73.25-31.48-20.05-21.12-30.07-46.07-30.07-74.86s10.42-54.41,31.28-75.27c20.98-20.98,46.14-31.48,75.47-31.48s54.61,10.49,75.47,31.48c20.85,20.85,31.28,45.94,31.28,75.27v89.19c0,9.47-7.68,17.15-17.15,17.15h0c-9.47,0-17.15-7.68-17.15-17.15ZM478.76,509.16c0-19.78-7.13-36.72-21.39-50.85-14.26-14.26-31.28-21.39-51.05-21.39s-36.59,7.13-50.85,21.39c-14.26,14.13-21.39,31.07-21.39,50.85s7.13,36.79,21.39,51.05c14.26,14.13,31.21,21.19,50.85,21.19s36.65-7.06,51.05-21.19c14.26-14.26,21.39-31.28,21.39-51.05Z"/>
  <g>
    <path class="cls-1" d="M267.08,454.41c0,2.35-.48,4.74-1.51,7.09l-40.24,93.91-4.48,10.44-7.22,16.26-1.36,3.12-1.91,4.3-2.55,5.77c-5.38,12.24-17.47,20.14-30.85,20.21-.39,0-.75,0-1.14-.07-3.23-.04-6.36-.59-9.35-1.49-2.83-.83-5.57-1.97-8.05-3.47-5.18-3.05-9.57-7.33-12.75-12.4-1.18-1.93-2.24-3.97-3.07-6.12-1.36-3.58-1.84-7.46-1.84-11.34v-253.6c0-9.68,7.86-17.53,17.53-17.53,4.83,0,9.22,1.97,12.4,5.13,3.18,3.18,5.13,7.55,5.13,12.4v248.29c0,.35.15.59.35.79.5.55,1.54.5,1.93-.35l3.53-7.96,51.91-120.44c2.79-6.34,9.08-10.42,16.02-10.42,10.07,0,17.51,8.27,17.51,17.49Z"/>
    <g>
      <path class="cls-1" d="M328.67,595.34c-13.63,10.58-36.03,17.31-51.74,17.31-18.26,0-38.07-7.26-57.82-22.23l-6.85-5.2,1.36-3.12,7.22-16.26,4.48-10.44,18.39,11.61c6.38,3.97,20.43,12.79,34.71,12.79,8.27,0,22.27-2.87,29.99-8.69,4.21,6.63,9.19,12.97,14.9,18.98,1.75,1.82,3.53,3.58,5.35,5.24Z"/>
      <polygon class="cls-1" points="223.46 554.22 225.33 555.41 220.85 565.85 213.63 582.11 212.27 585.23 210.36 583.78 214.44 574.52 223.46 554.22"/>
    </g>
  </g>
  <path class="cls-1" d="M1099.71,598.35v-16.95c-20.31,22.74-45.6,34.1-75.87,34.1-28.65,0-53.07-10.49-73.25-31.48-20.05-21.12-30.07-46.07-30.07-74.86s10.42-54.41,31.28-75.27c20.98-20.98,46.14-31.48,75.47-31.48s54.61,10.49,75.47,31.48c20.85,20.85,31.28,45.94,31.28,75.27v89.19c0,9.47-7.68,17.15-17.15,17.15h0c-9.47,0-17.15-7.68-17.15-17.15ZM1099.71,509.16c0-19.78-7.13-36.72-21.39-50.85-14.26-14.26-31.28-21.39-51.05-21.39s-36.59,7.13-50.85,21.39c-14.26,14.13-21.39,31.07-21.39,50.85s7.13,36.79,21.39,51.05c14.26,14.13,31.21,21.19,50.85,21.19s36.65-7.06,51.05-21.19c14.26-14.26,21.39-31.28,21.39-51.05Z"/>
  <rect class="cls-1" x="1308.81" y="326.16" width="50.43" height="50.43" rx="25.21" ry="25.21"/>
  <rect class="cls-1" x="1316.87" y="402.42" width="34.3" height="213.08" rx="17.15" ry="17.15"/>
  <path class="cls-1" d="M755.35,509.16c0,28.92-10.09,53.88-30.27,74.86-20.05,20.99-44.39,31.48-73.05,31.48-30.13,0-55.36-11.37-75.67-34.1v91.86c0,9.53-7.72,17.25-17.25,17.25h0c-9.53,0-17.25-7.72-17.25-17.25v-164.1c0-29.33,10.42-54.41,31.28-75.27,20.98-20.98,46.14-31.48,75.46-31.48s54.28,10.49,75.27,31.48c20.98,20.85,31.48,45.94,31.48,75.27ZM720.85,509.16c0-19.78-7.14-36.72-21.39-50.85-14.13-14.26-31.07-21.39-50.85-21.39s-36.79,7.13-51.05,21.39c-14.13,14.13-21.19,31.07-21.19,50.85s7.06,36.79,21.19,51.05c14.26,14.13,31.27,21.19,51.05,21.19s36.72-7.06,50.85-21.19,21.39-31.28,21.39-51.05Z"/>
  <path class="cls-1" d="M911.58,595.34c0,5.99-2.17,10.93-6.47,14.68-4.12,3.62-9.28,5.44-15.32,5.44h-8.71c-15.38,0-29.31-3.69-41.4-10.99-12.09-7.26-21.74-17.36-28.72-30.02-6.38-11.56-6.1-45.88-6.1-47.72v-87.78h-33.53c-5.29,0-9.79-1.71-13.38-5.13-3.64-3.47-5.49-7.81-5.49-12.92s1.84-9.85,5.51-13.32c3.58-3.42,8.07-5.16,13.36-5.16h33.53v-72.37c0-5.84,1.87-10.77,5.55-14.64,3.75-3.93,8.67-5.92,14.57-5.92s10.82,1.97,14.7,5.84c3.88,3.91,5.86,8.84,5.86,14.72v72.37h46.82c5.27,0,9.79,1.73,13.36,5.16,3.66,3.49,5.51,7.96,5.51,13.32s-1.84,9.46-5.49,12.92c-3.6,3.42-8.12,5.13-13.38,5.13h-46.82v88.94c-.02,12.84-.02,27.38,6.87,34.84,7.48,8.12,16.87,12.05,28.68,12.05h11.19c5.68,0,10.4,2.02,14.02,5.99,3.51,3.88,5.29,8.78,5.29,14.57Z"/>
  <path class="cls-1" d="M1288.73,419.58h0c0,9.48-7.68,17.16-17.16,17.16h-34.43c-19.08,0-34.56,15.47-34.56,34.56v127.07c0,9.48-7.68,17.16-17.16,17.16h0c-9.48,0-17.16-7.68-17.16-17.16v-134.1c0-34.15,27.69-61.84,61.84-61.84h41.46c9.48,0,17.16,7.68,17.16,17.16Z"/>
</svg>